{
  "accessors": [
    {
      "bufferView": 2,
      "componentType": 5126,
      "count": 1031,
      "max": [
        1.1960129737854004,
        0.992007315158844,
        3.134791612625122
      ],
      "min": [
        -1.1976721286773682,
        -0.4979831874370575,
        -2.7087111473083496
      ],
      "type": "VEC3"
    },
    {
      "bufferView": 2,
      "byteOffset": 12372,
      "componentType": 5126,
      "count": 1031,
      "max": [
        1.0,
        1.0,
        1.0
      ],
      "min": [
        -1.0,
        -1.0,
        -1.0
      ],
      "type": "VEC3"
    },
    {
      "bufferView": 1,
      "componentType": 5126,
      "count": 1031,
      "max": [
        0.9880883097648621,
        0.9964909553527832
      ],
      "min": [
        0.042743027210235596,
        0.0442940928041935
      ],
      "type": "VEC2"
    },
    {
      "bufferView": 0,
      "componentType": 5125,
      "count": 2319,
      "type": "SCALAR"
    },
    {
      "bufferView": 2,
      "byteOffset": 24744,
      "componentType": 5126,
      "count": 80,
      "max": [
        1.0056724548339844,
        0.2576374411582947,
        3.0188376903533936
      ],
      "min": [
        -1.0073316097259521,
        -0.39807021617889404,
        -2.5621159076690674
      ],
      "type": "VEC3"
    },
    {
      "bufferView": 2,
      "byteOffset": 25704,
      "componentType": 5126,
      "count": 80,
      "max": [
        0.9539287686347961,
        0.6185402274131775,
        0.9685015082359314
      ],
      "min": [
        -0.9539287686347961,
        -0.017273716628551483,
        -0.9986690878868103
      ],
      "type": "VEC3"
    },
    {
      "bufferView": 1,
      "byteOffset": 8248,
      "componentType": 5126,
      "count": 80,
      "max": [
        0.24491506814956665,
        0.8743064999580383
      ],
      "min": [
        0.037106700241565704,
        0.8425799012184143
      ],
      "type": "VEC2"
    },
    {
      "bufferView": 0,
      "byteOffset": 9276,
      "componentType": 5125,
      "count": 108,
      "type": "SCALAR"
    },
    {
      "bufferView": 2,
      "byteOffset": 26664,
      "componentType": 5126,
      "count": 80,
      "max": [
        0.16930364072322845,
        0.4208376705646515,
        0.4424408972263336
      ],
      "min": [
        -0.16056258976459503,
        -0.4208402931690216,
        -0.44257667660713196
      ],
      "type": "VEC3"
    },
    {
      "bufferView": 2,
      "byteOffset": 27624,
      "componentType": 5126,
      "count": 80,
      "max": [
        0.9997144937515259,
        0.9510607719421387,
        1.0
      ],
      "min": [
        -1.0,
        -0.9510607719421387,
        -1.0
      ],
      "type": "VEC3"
    },
    {
      "bufferView": 1,
      "byteOffset": 8888,
      "componentType": 5126,
      "count": 80,
      "max": [
        0.4294043481349945,
        0.9564710855484009
      ],
      "min": [
        0.010092973709106445,
        0.031044676899909973
      ],
      "type": "VEC2"
    },
    {
      "bufferView": 0,
      "byteOffset": 9708,
      "componentType": 5125,
      "count": 288,
      "type": "SCALAR"
    },
    {
      "bufferView": 2,
      "byteOffset": 28584,
      "componentType": 5126,
      "count": 80,
      "max": [
        0.16056281328201294,
        0.4208376705646515,
        0.44244101643562317
      ],
      "min": [
        -0.16930383443832397,
        -0.420840322971344,
        -0.4425767958164215
      ],
      "type": "VEC3"
    },
    {
      "bufferView": 2,
      "byteOffset": 29544,
      "componentType": 5126,
      "count": 80,
      "max": [
        1.0,
        0.9510607719421387,
        1.0
      ],
      "min": [
        -0.9997144937515259,
        -0.9510607719421387,
        -1.0
      ],
      "type": "VEC3"
    },
    {
      "bufferView": 1,
      "byteOffset": 9528,
      "componentType": 5126,
      "count": 80,
      "max": [
        0.4294043481349945,
        0.9564710855484009
      ],
      "min": [
        0.010092973709106445,
        0.031044676899909973
      ],
      "type": "VEC2"
    },
    {
      "bufferView": 0,
      "byteOffset": 10860,
      "componentType": 5125,
      "count": 288,
      "type": "SCALAR"
    },
    {
      "bufferView": 2,
      "byteOffset": 30504,
      "componentType": 5126,
      "count": 80,
      "max": [
        0.1607953906059265,
        0.42083775997161865,
        0.44243350625038147
      ],
      "min": [
        -0.1522424966096878,
        -0.42084023356437683,
        -0.4425589442253113
      ],
      "type": "VEC3"
    },
    {
      "bufferView": 2,
      "byteOffset": 31464,
      "componentType": 5126,
      "count": 80,
      "max": [
        0.9997429847717285,
        0.9510607719421387,
        1.0
      ],
      "min": [
        -1.0,
        -0.9510607719421387,
        -1.0
      ],
      "type": "VEC3"
    },
    {
      "bufferView": 1,
      "byteOffset": 10168,
      "componentType": 5126,
      "count": 80,
      "max": [
        0.4294043481349945,
        0.9564710855484009
      ],
      "min": [
        0.010092973709106445,
        0.031044676899909973
      ],
      "type": "VEC2"
    },
    {
      "bufferView": 0,
      "byteOffset": 12012,
      "componentType": 5125,
      "count": 288,
      "type": "SCALAR"
    },
    {
      "bufferView": 2,
      "byteOffset": 32424,
      "componentType": 5126,
      "count": 80,
      "max": [
        0.15224267542362213,
        0.42083775997161865,
        0.4424336552619934
      ],
      "min": [
        -0.16079562902450562,
        -0.42084023356437683,
        -0.44255900382995605
      ],
      "type": "VEC3"
    },
    {
      "bufferView": 2,
      "byteOffset": 33384,
      "componentType": 5126,
      "count": 80,
      "max": [
        1.0,
        0.9510607719421387,
        1.0
      ],
      "min": [
        -0.9997429847717285,
        -0.9510607719421387,
        -1.0
      ],
      "type": "VEC3"
    },
    {
      "bufferView": 1,
      "byteOffset": 10808,
      "componentType": 5126,
      "count": 80,
      "max": [
        0.4294043481349945,
        0.9564710855484009
      ],
      "min": [
        0.010092973709106445,
        0.031044676899909973
      ],
      "type": "VEC2"
    },
    {
      "bufferView": 0,
      "byteOffset": 13164,
      "componentType": 5125,
      "count": 288,
      "type": "SCALAR"
    }
  ],
  "asset": {
    "extras": {
      "author": "Han66st (https://sketchfab.com/Han66st)",
      "license": "CC-BY-4.0 (http://creativecommons.org/licenses/by/4.0/)",
      "source": "https://sketchfab.com/3d-models/pickup-truck-616761063ad845fe84e1d965bdce5595",
      "title": "Pickup Truck"
    },
    "generator": "Sketchfab-15.91.0",
    "version": "2.0"
  },
  "bufferViews": [
    {
      "buffer": 0,
      "byteLength": 14316,
      "name": "floatBufferViews",
      "target": 34963
    },
    {
      "buffer": 0,
      "byteLength": 11448,
      "byteOffset": 14316,
      "byteStride": 8,
      "name": "floatBufferViews",
      "target": 34962
    },
    {
      "buffer": 0,
      "byteLength": 34344,
      "byteOffset": 25764,
      "byteStride": 12,
      "name": "floatBufferViews",
      "target": 34962
    }
  ],
  "buffers": [
    {
      "byteLength": 60108,
      "uri": "scene.bin"
    }
  ],
  "images": [
    {
      "uri": "textures/pickup1_body_baseColor.png"
    }
  ],
  "materials": [
    {
      "doubleSided": true,
      "name": "pickup1_body",
      "pbrMetallicRoughness": {
        "baseColorTexture": {
          "index": 0
        },
        "metallicFactor": 0.0
      }
    },
    {
      "doubleSided": true,
      "name": "pickup1_lamp",
      "pbrMetallicRoughness": {
        "baseColorTexture": {
          "index": 0
        },
        "metallicFactor": 0.0,
        "roughnessFactor": 0.547619
      }
    },
    {
      "doubleSided": true,
      "name": "ban_pck",
      "pbrMetallicRoughness": {
        "baseColorTexture": {
          "index": 0
        },
        "metallicFactor": 0.0
      }
    }
  ],
  "meshes": [
    {
      "name": "Object_0",
      "primitives": [
        {
          "attributes": {
            "NORMAL": 1,
            "POSITION": 0,
            "TEXCOORD_0": 2
          },
          "indices": 3,
          "material": 0,
          "mode": 4
        }
      ]
    },
    {
      "name": "Object_1",
      "primitives": [
        {
          "attributes": {
            "NORMAL": 5,
            "POSITION": 4,
            "TEXCOORD_0": 6
          },
          "indices": 7,
          "material": 1,
          "mode": 4
        }
      ]
    },
    {
      "name": "Object_2",
      "primitives": [
        {
          "attributes": {
            "NORMAL": 9,
            "POSITION": 8,
            "TEXCOORD_0": 10
          },
          "indices": 11,
          "material": 2,
          "mode": 4
        }
      ]
    },
    {
      "name": "Object_3",
      "primitives": [
        {
          "attributes": {
            "NORMAL": 13,
            "POSITION": 12,
            "TEXCOORD_0": 14
          },
          "indices": 15,
          "material": 2,
          "mode": 4
        }
      ]
    },
    {
      "name": "Object_4",
      "primitives": [
        {
          "attributes": {
            "NORMAL": 17,
            "POSITION": 16,
            "TEXCOORD_0": 18
          },
          "indices": 19,
          "material": 2,
          "mode": 4
        }
      ]
    },
    {
      "name": "Object_5",
      "primitives": [
        {
          "attributes": {
            "NORMAL": 21,
            "POSITION": 20,
            "TEXCOORD_0": 22
          },
          "indices": 23,
          "material": 2,
          "mode": 4
        }
      ]
    }
  ],
  "nodes": [
    {
      "children": [
        1
      ],
      "matrix": [
        1.0,
        0.0,
        0.0,
        0.0,
        0.0,
        2.220446049250313e-16,
        -1.0,
        0.0,
        0.0,
        1.0,
        2.220446049250313e-16,
        0.0,
        0.0,
        0.0,
        0.0,
        1.0
      ],
      "name": "Sketchfab_model"
    },
    {
      "children": [
        2
      ],
      "name": "root"
    },
    {
      "children": [
        3
      ],
      "matrix": [
        1.0,
        0.0,
        0.0,
        0.0,
        0.0,
        2.220446049250313e-16,
        1.0,
        0.0,
        0.0,
        -1.0,
        2.220446049250313e-16,
        0.0,
        0.0,
        0.0,
        0.0,
        1.0
      ],
      "name": "GLTF_SceneRootNode"
    },
    {
      "children": [
        4,
        5,
        6,
        8,
        10,
        12
      ],
      "matrix": [
        1.0,
        0.0,
        0.0,
        0.0,
        0.0,
        1.0,
        0.0,
        0.0,
        0.0,
        0.0,
        1.0,
        0.0,
        0.0,
        0.9168681502342224,
        0.0,
        1.0
      ],
      "name": "Pickup1.Body_4"
    },
    {
      "mesh": 0,
      "name": "Object_4"
    },
    {
      "mesh": 1,
      "name": "Object_5"
    },
    {
      "children": [
        7
      ],
      "matrix": [
        1.0,
        0.0,
        0.0,
        0.0,
        0.0,
        1.0,
        0.0,
        0.0,
        0.0,
        0.0,
        1.0,
        0.0,
        0.89886474609375,
        -0.5248282551765442,
        -1.5288419723510742,
        1.0
      ],
      "name": "Pickup1.Wheel.Bk.L_0"
    },
    {
      "mesh": 2,
      "name": "Object_7"
    },
    {
      "children": [
        9
      ],
      "matrix": [
        1.0,
        0.0,
        0.0,
        0.0,
        0.0,
        1.0,
        0.0,
        0.0,
        0.0,
        0.0,
        1.0,
        0.0,
        -0.9005241394042969,
        -0.5208303928375244,
        -1.5264787673950195,
        1.0
      ],
      "name": "Pickup1.Wheel.Bk.R_1"
    },
    {
      "mesh": 3,
      "name": "Object_9"
    },
    {
      "children": [
        11
      ],
      "matrix": [
        1.0,
        0.0,
        0.0,
        0.0,
        0.0,
        1.0,
        0.0,
        0.0,
        0.0,
        0.0,
        1.0,
        0.0,
        0.8470554351806641,
        -0.524828314781189,
        2.1185007095336914,
        1.0
      ],
      "name": "Pickup1.Wheel.Ft.L_2"
    },
    {
      "mesh": 4,
      "name": "Object_11"
    },
    {
      "children": [
        13
      ],
      "matrix": [
        1.0,
        0.0,
        0.0,
        0.0,
        0.0,
        1.0,
        0.0,
        0.0,
        0.0,
        0.0,
        1.0,
        0.0,
        -0.8065185546875,
        -0.5208305716514587,
        2.118499279022217,
        1.0
      ],
      "name": "Pickup1.Wheel.Ft.R_3"
    },
    {
      "mesh": 5,
      "name": "Object_13"
    }
  ],
  "samplers": [
    {
      "magFilter": 9729,
      "minFilter": 9987,
      "wrapS": 10497,
      "wrapT": 10497
    }
  ],
  "scene": 0,
  "scenes": [
    {
      "name": "Sketchfab_Scene",
      "nodes": [
        0
      ]
    }
  ],
  "textures": [
    {
      "sampler": 0,
      "source": 0
    }
  ]
}
